<?xml version="1.0" encoding="utf-8"?>
<svg version="1.0" width="300.000000pt" height="300.000000pt" viewBox="0 0 300.000000 300.000000" preserveAspectRatio="xMidYMid meet" xmlns="http://www.w3.org/2000/svg">
  <g transform="matrix(1, 0, 0, 1, -0.067014, 12.204455)">
    <polygon style="stroke: rgb(0, 0, 0); fill: rgb(251, 207, 37);" points="21.49 252.007 277.947 251.022 150.281 24.16"/>
    <g transform="matrix(0.1, 0, 0, -0.1, 0, 300)" fill="#000000" stroke="none">
      <path d="M1465 2864 c-24 -12 -66 -76 -201 -312 -95 -163 -289 -499 -431 -747 -143 -247 -344 -596 -447 -775 -104 -179 -217 -375 -252 -436 -73 -127 -81 -165 -38 -205 l26 -24 1379 0 1379 0 26 27 c44 43 37 69 -67 250 -52 90 -359 624 -684 1186 -651 1127 -615 1074 -690 1036z m335 -791 c161 -285 388 -684 503 -888 116 -203 239 -419 274 -480 l63 -110 -570 -3 c-313 -1 -826 -1 -1140 0 l-570 3 148 260 c82 143 217 382 302 530 84 149 253 446 375 660 122 215 241 425 265 468 24 42 47 77 50 77 3 0 138 -233 300 -517z"/>
      <path d="M1771 2006 l-1 -40 -33 32 c-37 36 -61 44 -30 10 31 -35 43 -63 43 -105 0 -42 -34 -107 -53 -101 -7 3 -32 45 -56 94 -24 49 -46 84 -48 77 -2 -6 7 -34 21 -62 14 -28 26 -60 26 -72 0 -19 -4 -21 -39 -15 -22 3 -48 9 -58 12 -16 6 -16 5 -3 -8 8 -8 33 -20 55 -26 61 -18 72 -27 55 -47 -9 -10 -22 -14 -37 -10 -19 4 -23 2 -23 -19 0 -13 -7 -27 -16 -30 -9 -4 -18 -5 -19 -4 -1 2 -11 17 -23 35 -29 41 -21 97 20 164 17 26 28 55 26 66 -3 13 -10 6 -28 -27 -42 -75 -77 -65 -99 27 l-9 38 -1 -33 c-1 -18 10 -55 24 -82 14 -27 25 -60 25 -74 0 -36 -17 -76 -33 -76 -22 0 -64 51 -91 110 -17 38 -25 48 -25 32 -1 -12 10 -45 24 -72 l25 -50 -24 0 c-18 0 -33 11 -51 37 -20 31 -25 34 -25 17 0 -36 38 -73 80 -80 30 -5 40 -12 45 -31 3 -14 16 -35 29 -48 25 -25 20 -39 -26 -69 -16 -10 -28 -24 -28 -31 0 -19 45 -45 78 -45 32 0 52 -16 52 -42 0 -36 -36 -43 -218 -40 -195 4 -267 -7 -312 -45 -52 -43 -61 -72 -58 -179 l3 -97 -56 -51 c-46 -42 -64 -69 -104 -156 -70 -156 -76 -176 -63 -205 9 -19 19 -25 45 -25 32 0 46 21 23 35 -30 18 23 145 88 211 75 76 202 168 202 145 0 -6 -16 -28 -35 -50 -19 -21 -35 -45 -35 -52 0 -8 26 -69 57 -136 57 -119 59 -122 91 -123 38 0 40 12 8 51 -28 32 -66 128 -66 163 0 16 25 46 82 100 l82 77 61 -16 c34 -8 75 -15 92 -15 31 0 32 -1 48 -76 12 -52 16 -104 13 -170 l-4 -94 32 0 c18 0 35 6 37 13 4 9 6 9 6 0 1 -8 14 -13 31 -13 23 0 30 4 30 20 0 11 -7 23 -15 26 -21 8 -19 42 11 174 28 123 40 154 74 185 12 11 33 39 47 63 22 36 24 49 18 90 -4 26 -8 90 -9 142 -1 83 -5 102 -30 154 l-29 58 26 22 c45 38 66 116 31 116 -12 0 -10 7 10 30 45 54 70 180 46 235 -7 16 -9 12 -9 -19z m-76 -264 c-6 -4 -25 -20 -42 -36 -18 -17 -33 -25 -33 -18 0 6 17 23 37 37 35 23 59 35 38 17z m-146 -704 c0 -18 -4 -51 -8 -73 l-7 -40 -8 63 c-4 34 -4 67 -1 72 13 20 25 9 24 -22z m-22 -250 c-2 -13 -4 -5 -4 17 -1 22 1 32 4 23 2 -10 2 -28 0 -40z"/>
    </g>
  </g>
</svg>