<svg xmlns="http://www.w3.org/2000/svg" viewBox="0 0 126.457 39.021">
  <defs>
    <style>.cls-1{fill:#1B202C;}</style>
  </defs>
  <title>utahid-logo</title>
  <g id="Layer_2" data-name="Layer 2">
    <g id="Layer_2-2" data-name="Layer 2">
      <path class="cls-1" d="M26.626,39.021a.792.792,0,1,1,0-1.584l97.454-.2a.777.777,0,0,0,.792-.759V2.343a.776.776,0,0,0-.792-.758l-102.6.2h0a.793.793,0,1,1,0-1.585L124.08,0a2.363,2.363,0,0,1,2.377,2.343V36.48a2.362,2.362,0,0,1-2.377,2.343l-97.454.2Z"></path>
      <path class="cls-1" d="M19.075,14.25a.822.822,0,0,1-.81-.82V9.468A6.836,6.836,0,0,0,4.77,7.923a.821.821,0,0,1-1.6-.37A8.471,8.471,0,0,1,19.9,9.46v3.962a.821.821,0,0,1-.812.828Z"></path>
      <path class="cls-1" d="M13.709,31.494c0,.624-1.161,1.133-2.127,1.133s-2.245-.511-2.245-1.133l1.026-6.12a2.065,2.065,0,1,1,2.413-.068Z"></path>
      <path class="cls-1" d="M21.289,39.021H1.757A1.759,1.759,0,0,1,0,37.264V11.489A1.759,1.759,0,0,1,1.757,9.732H12.7a1.759,1.759,0,0,1,1.757,1.757v3.763a.118.118,0,0,0,.117.117h6.712a1.759,1.759,0,0,1,1.757,1.757V37.264A1.759,1.759,0,0,1,21.289,39.021ZM1.757,11.38a.118.118,0,0,0-.117.116V37.264a.119.119,0,0,0,.117.117H21.289a.12.12,0,0,0,.119-.117V17.142a.119.119,0,0,0-.119-.117H14.577a1.757,1.757,0,0,1-1.755-1.757V11.489a.117.117,0,0,0-.117-.117h0Z"></path>
      <path class="cls-1" d="M32.158,9v12.92c0,4.891,2.179,6.963,5.083,6.963,3.238,0,5.312-2.138,5.312-6.963V9H45.4V21.729c0,6.7-3.531,9.456-8.259,9.456-4.469,0-7.836-2.559-7.836-9.327V9Z"></path>
      <path class="cls-1" d="M53.758,10.653v4.5h4.081v2.169H53.758v8.454c0,1.943.551,3.044,2.138,3.044a6.21,6.21,0,0,0,1.651-.2l.129,2.139a6.976,6.976,0,0,1-2.525.4,3.953,3.953,0,0,1-3.078-1.2c-.809-.842-1.1-2.234-1.1-4.08V17.324H48.543V15.155h2.428V11.391Z"></path>
      <path class="cls-1" d="M69.723,30.829,69.5,28.848h-.1a5.834,5.834,0,0,1-4.791,2.331,4.469,4.469,0,0,1-4.794-4.5c0-3.787,3.368-5.861,9.425-5.827v-.325c0-1.3-.357-3.627-3.565-3.627a7.823,7.823,0,0,0-4.081,1.165l-.647-1.878A9.714,9.714,0,0,1,66.1,14.8c4.793,0,5.958,3.271,5.958,6.412v5.863a22.056,22.056,0,0,0,.259,3.764Zm-.422-8c-3.107-.065-6.637.486-6.637,3.53a2.521,2.521,0,0,0,2.688,2.72,3.9,3.9,0,0,0,3.789-2.623,2.978,2.978,0,0,0,.16-.907Z"></path>
      <path class="cls-1" d="M76.654,7.836H79.5v9.781h.064a5.283,5.283,0,0,1,2.04-2.008,5.867,5.867,0,0,1,2.916-.811c2.105,0,5.473,1.3,5.473,6.7v9.328H87.146v-9c0-2.525-.939-4.663-3.627-4.663A4.094,4.094,0,0,0,79.7,20.012a3.461,3.461,0,0,0-.2,1.361v9.456H76.654Z"></path>
      <path class="cls-1" d="M99.54,27.891c-1.666,2.179-3.718,3.217-4.736,3.217-.87,0-1.26-.852-.672-3.341.527-2.179,1.387-5.469,1.981-7.967.145-.664.111-.949-.1-.949a5.178,5.178,0,0,0-2.038,1.363l-.426-.862c1.612-1.7,3.795-3.016,4.843-3.016.846,0,.919,1.065.323,3.531-.582,2.235-1.335,5.364-1.892,7.575-.222.847-.222,1.214,0,1.214a4.71,4.71,0,0,0,2.252-1.6Zm.828-16.547a1.876,1.876,0,0,1-1.807,1.963,1.447,1.447,0,0,1-1.5-1.393,1.271,1.271,0,0,1,0-.138A1.965,1.965,0,0,1,98.971,9.8,1.39,1.39,0,0,1,100.368,11.344Z"></path>
      <path class="cls-1" d="M116.63,27.87c-1.636,2.135-3.664,3.264-4.607,3.264-.991,0-1.424-.792-.781-3.829l.353-1.664c-1.824,2.65-4.811,5.493-7.054,5.493-1.3,0-2.444-1.189-2.444-4.1a11.448,11.448,0,0,1,3.7-8.369,10.174,10.174,0,0,1,5.489-2.306,5.406,5.406,0,0,1,2.163.373l1.064-5.2c.255-1.319.013-1.446-1.169-1.547-.313-.032-.947-.065-1.153-.065l.2-.894a24,24,0,0,0,4.2-.839,5.756,5.756,0,0,1,.969-.228c.283,0,.341.3.182.966-1.436,6.165-2.971,13.052-3.987,18.546-.159.848-.048,1.211.18,1.211.377,0,1.173-.49,2.284-1.672Zm-5.689-3.005a8.642,8.642,0,0,0,1.456-3.348l.636-2.749a4.008,4.008,0,0,0-2.959-.977c-3.512,0-5.031,5.168-5.031,8.539,0,1.686.453,2.554,1.261,2.554C107.576,28.884,109.4,27.123,110.941,24.865Z"></path>
    </g>
  </g>
</svg>
