<?xml version="1.0" encoding="UTF-8" standalone="no"?>
<svg
   id="Layer_1"
   data-name="Layer 1"
   viewBox="0 0 63.999999 64.000002"
   version="1.1"
   sodipodi:docname="favicon.svg"
   width="64"
   height="64"
   inkscape:version="1.1.2 (b8e25be8, 2022-02-05)"
   inkscape:export-filename="/Users/stdavis/Documents/Projects/roadkill-mobile-rewrite/src/front/assets/icon.png"
   inkscape:export-xdpi="163.84"
   inkscape:export-ydpi="163.84"
   xmlns:inkscape="http://www.inkscape.org/namespaces/inkscape"
   xmlns:sodipodi="http://sodipodi.sourceforge.net/DTD/sodipodi-0.dtd"
   xmlns="http://www.w3.org/2000/svg"
   xmlns:svg="http://www.w3.org/2000/svg">
  <defs
     id="defs16" />
  <sodipodi:namedview
     id="namedview14"
     pagecolor="#ffffff"
     bordercolor="#666666"
     borderopacity="1.0"
     inkscape:pageshadow="2"
     inkscape:pageopacity="0"
     inkscape:pagecheckerboard="false"
     showgrid="false"
     width="525px"
     fit-margin-top="0"
     fit-margin-left="0"
     fit-margin-right="0"
     fit-margin-bottom="0"
     showborder="true"
     inkscape:zoom="6.526223"
     inkscape:cx="26.278599"
     inkscape:cy="42.290924"
     inkscape:window-width="1938"
     inkscape:window-height="1218"
     inkscape:window-x="0"
     inkscape:window-y="25"
     inkscape:window-maximized="0"
     inkscape:current-layer="Layer_1" />
  <g
     id="g6969"
     transform="matrix(0.1271334,0,0,0.1271334,-2.0081844,-2.0081843)">
    <path
       d="M 267.34856,476.79248 H 46.798557 c -2.822149,0.13363 -5.649179,-0.12551 -8.4,-0.77 -8.143084,-2.42723 -12.349872,-11.41105 -9,-19.22 0.450777,-1.07495 0.975362,-2.11744 1.57,-3.12 74.426673,-129 148.883333,-257.98 223.370003,-386.939989 4.83637,-8.36925 13.3739,-10.855415 20.38211,-6.521365 0.78776,0.487171 1.5562,1.060516 2.29789,1.721365 1.67775,1.617586 3.08858,3.490815 4.18,5.55 74.16,128.373319 148.29333,256.763319 222.4,385.169989 7.59,13.16 1.11,24.12 -14.19,24.12 -74.02,0.02 -148.04,0.0233 -222.06,0.01 z"
       id="path9-7"
       style="fill:#fbcf25;fill-opacity:1;stroke:#fbcf25;stroke-width:25;stroke-miterlimit:4;stroke-dasharray:none;stroke-opacity:1"
       sodipodi:nodetypes="ccccccsccccc" />
    <g
       id="g6956">
      <path
         d="m 267.3342,476.81697 q -110.28,0 -220.550003,0 a 30.5,30.5 0 0 1 -8.4,-0.77 14.21,14.21 0 0 1 -9,-19.22 25.28,25.28 0 0 1 1.57,-3.12 Q 142.5942,260.20697 254.3242,66.766972 c 5.38,-9.31 15.34,-11.34 22.68,-4.8 a 22.06,22.06 0 0 1 4.18,5.55 q 111.24,192.559998 222.4,385.169998 c 7.59,13.16 1.11,24.12 -14.19,24.12 q -111.03,0.03 -222.06,0.01 z m 190.6,-37.44 -190.42,-335.23 c -63.79,112.19 -127,223.41 -190.650003,335.28 z"
         id="path9" />
      <path
         d="m 313.2442,210.04697 -1.66,-12.5 c 8.45,6.36 4.27,27.85 -8.52,46.54 5.17,-0.37 4.82,3.11 4.48,6.28 a 18.71,18.71 0 0 1 -8.69,13.95 c -3,2 -3.7,3.58 -1.65,7.14 7.58,13.22 11.25,27.28 7.88,42.67 a 17.5,17.5 0 0 0 0.83,8.81 c 2.59,7.71 0.82,14.39 -3.79,20.65 a 32.93,32.93 0 0 1 -4,5.09 c -9.1,8.23 -12.18,19.14 -14,30.67 -1.46,9 -3.17,18 -4.49,27 -0.23,1.53 0.84,3.32 1.54,4.89 1,2.28 2.28,4.46 3.43,6.68 -1.29,0.59 -2.58,1.67 -3.87,1.68 -3,0 -6.62,0.86 -7.44,-2.81 -1,0.84 -2.13,2.62 -3.36,2.69 a 38.77,38.77 0 0 1 -8.73,-1 3.78,3.78 0 0 1 -0.16,-2.66 c 4.24,-7.91 2.61,-16.41 1.75,-24.49 -1.1,-10.36 -3.78,-20.55 -5.64,-30.1 -2.54,0.57 -4.35,1.51 -6,1.23 -7.36,-1.3 -14.64,-3 -22,-4.41 -1.4,-0.26 -3.44,-0.3 -4.35,0.5 -6.5,5.71 -12.67,11.8 -19.18,17.51 -6.51,5.71 -8.41,12 -4.67,20 3.35,7.14 4.79,15.25 11.39,20.67 1.26,1 1.7,3.05 3.2,5.92 -4.35,0 -7.58,0.14 -10.78,-0.09 a 3.71,3.71 0 0 1 -2.36,-2 q -7.21,-14.77 -14.23,-29.63 a 72.65,72.65 0 0 1 -3,-7.37 c -1.44,-4.19 -0.54,-7.45 3.05,-10.61 3.42,-3 5.89,-7.11 7.94,-11.4 -21.92,12.69 -43.03,25.91 -49.92,52.6 -0.81,3.13 -1,5.7 1.37,8.25 1,1.09 1.35,2.86 2.26,4.92 h -11.55 c -4.46,-5.95 -3.47,-11.68 -0.49,-17.92 5.6,-11.7 10.52,-23.73 15.9,-35.54 a 16.79,16.79 0 0 1 4,-4.95 c 2.32,-2.15 4.9,-4 7.35,-6 7.49,-6.11 9.81,-13.92 7.8,-23.25 a 42.06,42.06 0 0 1 -0.84,-7.43 c -0.53,-15.63 6.47,-25.7 21.85,-28.83 9.68,-2 19.81,-2.16 29.75,-2.4 12.15,-0.28 24.32,0.3 36.47,0.33 2.1,0 4.68,-0.28 6.18,-1.49 1.94,-1.56 4.26,-4.24 4.18,-6.36 -0.13,-3.21 -2.2,-5.87 -6.51,-6.14 a 35.29,35.29 0 0 1 -10.72,-2.92 c -1.56,-0.64 -3.59,-2.83 -3.48,-4.15 0.14,-1.72 2,-3.49 3.47,-4.87 2.81,-2.66 5.85,-5.07 7.76,-6.68 -3.22,-5.94 -5.55,-10.74 -8.4,-15.22 -0.86,-1.35 -3.06,-2.24 -4.79,-2.58 -6.57,-1.27 -12.07,-3.89 -14.69,-10.51 a 10.64,10.64 0 0 1 -0.4,-5.22 c 4.87,4.13 6.59,12.22 15.65,11 -1.09,-8.55 -9.15,-14.81 -8,-23.73 l 1.36,-0.51 a 45,45 0 0 0 1.94,5 c 3.1,5.84 6.08,11.76 9.62,17.33 1.21,1.9 3.78,3.26 6,4.09 2.22,0.83 4.44,0.11 5.14,-3 1.74,-7.74 2,-15 -3,-22 -3.52,-5 -5,-10.7 -2.8,-17.05 0.33,1.46 0.61,2.93 1,4.37 0.8,3 1.27,6.24 2.56,9.06 2.63,5.78 6.85,6.25 10.55,1.09 2.67,-3.74 4.69,-8 8.22,-11.75 -0.26,1.9 -0.16,4 -0.86,5.69 a 31.65,31.65 0 0 1 -4.41,8.36 c -4.17,5.06 -5,11 -5.89,17.13 -0.89,6.13 3.39,10.11 6.3,14.51 1.28,1.95 5.72,-0.56 6.21,-3.51 0.28,-1.73 0.26,-3.51 0.38,-5.41 5.85,2.91 8,2.24 12.75,-4.15 l -23.23,-9 c 0.18,-0.55 0.36,-1.09 0.55,-1.63 4,0.9 8.06,2 12.15,2.63 1.83,0.3 4.53,0.47 5.48,-0.56 0.95,-1.03 0.62,-3.81 0,-5.45 -2,-4.77 -4.41,-9.32 -6.53,-14 a 53.7,53.7 0 0 1 -1.89,-5.75 l 1.9,-0.82 c 2.55,5.24 5.06,10.5 7.66,15.72 2.6,5.22 5.22,10.32 7.85,15.49 13.68,-7.42 13.23,-25.21 -0.39,-38.55 3.99,-0.34 5.26,0.64 14.26,10.26 z m -36.84,150.34 c -3.93,-1.61 -5.41,-0.11 -5.15,3.05 0.56,7 1.4,13.95 2.13,20.92 l 0.57,-0.11 c 0.81,-7.87 1.62,-15.75 2.45,-23.86 z m 23.91,-113.48 -0.94,-1.21 -12.81,10.1 1.33,1.64 z"
         id="path11" />
    </g>
  </g>
</svg>
